<svg xmlns="http://www.w3.org/2000/svg" height="1024" preserveAspectRatio="none" style="display: block;" version="1.1" viewBox="0 0 2048 2048" width="1024">
<defs>
	<linearGradient gradientUnits="userSpaceOnUse" id="Gradient1" x1="1478.82" x2="464.323" y1="1075.03" y2="1019.8">
		<stop class="stop0" offset="0" stop-color="rgb(171,91,40)" stop-opacity="1"></stop>
		<stop class="stop1" offset="1" stop-color="rgb(249,189,124)" stop-opacity="1"></stop>
	</linearGradient>
	<linearGradient gradientUnits="userSpaceOnUse" id="Gradient2" x1="1581.6" x2="567.07" y1="1037.83" y2="957.15">
		<stop class="stop0" offset="0" stop-color="rgb(164,81,34)" stop-opacity="1"></stop>
		<stop class="stop1" offset="1" stop-color="rgb(235,174,109)" stop-opacity="1"></stop>
	</linearGradient>
</defs>
<path d="M 775.221 546.809 C 858.317 495.863 928.578 474.278 1026.96 472.646 C 1104.34 471.362 1170.85 482.903 1242.99 512.725 C 1350.49 558.057 1441.09 635.922 1502.07 735.384 C 1578.83 860.807 1602.52 1011.62 1567.91 1154.54 C 1532.36 1297.55 1442.11 1420.89 1316.55 1498.03 C 1292.54 1512.93 1267.29 1525.74 1241.09 1536.33 C 1242.19 1528.8 1262.92 1524.46 1268.8 1516.37 C 1269.86 1515.05 1273.1 1512.48 1274.89 1512.6 C 1279.96 1510.54 1298.34 1498.72 1302.22 1494.99 C 1307.34 1491.54 1338.31 1467.23 1340.04 1463.93 C 1339.72 1463.98 1339.4 1464.03 1339.08 1464.08 L 1335.81 1461.23 C 1340.14 1461.03 1342.95 1460.58 1346.37 1457.66 C 1359.8 1446.21 1373.98 1430.95 1384.63 1417.08 C 1386.06 1415.96 1391.87 1408.49 1393.41 1406.42 C 1467.4 1320.58 1506.22 1187.69 1517.9 1077.13 C 1532.42 931.366 1488.75 785.774 1396.4 672.069 C 1307.97 562.979 1179.7 493.63 1040 479.367 C 1000.98 475.436 944.389 506.951 915.845 531.591 C 756.611 669.039 749.975 952.664 884.959 1108.95 C 942.721 1175.83 1004.6 1212.45 1093.82 1221.11 C 1036.32 1254.08 955.121 1260.11 890.706 1249.83 C 815.915 1237.26 746.427 1203.11 690.781 1151.58 C 622.445 1087.34 573.714 995.489 572.108 900.798 C 569.659 756.413 655.081 632.799 768.204 551.939 C 770.129 550.594 773.905 548.365 775.221 546.809 z" fill="url(#Gradient2)" transform="translate(0,0)"></path>
<path d="M 813.593 510.547 L 814.154 512.139 C 802.831 517.385 777.175 532.993 766.666 540.312 C 765.053 541.198 763.849 541.975 762.422 543.141 C 632.566 632.47 569.213 748.553 540.493 902.04 C 511.492 1057.02 536.141 1208.54 626.654 1339.6 C 706.922 1458.17 831.216 1539.77 971.923 1566.28 C 1011.63 1573.46 1039.35 1574.08 1074.86 1554.03 C 1077.77 1552.39 1089.32 1546.5 1091.99 1545.62 C 1252.49 1453.18 1293.42 1228.59 1234.85 1063.89 C 1209.85 993.584 1164.36 929.385 1105.13 883.818 C 1088.1 870.716 1067.14 860.172 1047.79 850.857 C 1057.83 842.364 1058.75 808.475 1064.09 795.95 L 1063.35 794.636 C 1074.71 792.483 1095.41 792.449 1107.07 792.826 C 1178.72 795.228 1248.27 817.612 1307.88 857.45 C 1392 914.617 1449.2 996.548 1468.16 1096.99 C 1487.36 1198.68 1459.29 1293.85 1401.8 1378.02 C 1396.11 1386.25 1390.15 1394.28 1383.92 1402.11 L 1376.06 1411.77 C 1361.54 1426.22 1347.79 1443.58 1332.48 1457.62 C 1332.34 1457.75 1335.56 1460.93 1335.81 1461.23 L 1339.08 1464.08 C 1327.13 1464.51 1332.82 1463.32 1328.46 1460.42 C 1327.17 1461.05 1313.47 1472.65 1311.86 1474.3 C 1304.78 1479.5 1284.1 1493.81 1279.29 1498.25 C 1267.28 1505.47 1252.17 1513.95 1240.84 1521.52 C 1208.46 1537.82 1146.59 1565.82 1110.06 1568.63 C 1089.19 1573.24 1064.08 1574.09 1042.75 1575.61 C 953.304 1582 867.037 1565.11 785.849 1526.25 C 651.734 1463.61 548.062 1350.17 497.722 1210.97 C 448.058 1073.04 455.233 921.03 517.667 788.39 C 568.735 680.939 652.704 592.55 757.397 536.043 C 777.343 525.524 792.368 517.987 813.593 510.547 z" fill="url(#Gradient1)" transform="translate(0,0)"></path>
<path d="M 955.454 826.22 C 987.563 808.927 1027.18 797.138 1063.35 794.636 L 1064.09 795.95 C 1058.75 808.475 1057.83 842.364 1047.79 850.857 C 1013.81 835.606 991.461 831.87 955.454 826.22 z" fill="rgb(214,152,92)" transform="translate(0,0)"></path>
<path d="M 1311.86 1474.3 C 1313.47 1472.65 1327.17 1461.05 1328.46 1460.42 C 1332.82 1463.32 1327.13 1464.51 1339.08 1464.08 C 1339.4 1464.03 1339.72 1463.98 1340.04 1463.93 C 1338.31 1467.23 1307.34 1491.54 1302.22 1494.99 C 1303.25 1482.67 1310.75 1485.5 1311.86 1474.3 z" fill="rgb(254,253,252)" fill-opacity="0.929412" transform="translate(0,0)"></path>
<path d="M 1311.86 1474.3 C 1310.75 1485.5 1303.25 1482.67 1302.22 1494.99 C 1298.34 1498.72 1279.96 1510.54 1274.89 1512.6 C 1279.26 1507.42 1282.09 1505.28 1279.29 1498.25 C 1284.1 1493.81 1304.78 1479.5 1311.86 1474.3 z" fill="rgb(254,253,252)" fill-opacity="0.819608" transform="translate(0,0)"></path>
<path d="M 1279.29 1498.25 C 1282.09 1505.28 1279.26 1507.42 1274.89 1512.6 C 1273.1 1512.48 1269.86 1515.05 1268.8 1516.37 C 1254.36 1517.42 1255 1523.52 1243.56 1527.2 L 1240.12 1528.33 C 1241.01 1526.12 1241.84 1523.81 1240.84 1521.52 C 1252.17 1513.95 1267.28 1505.47 1279.29 1498.25 z" fill="rgb(254,253,252)" fill-opacity="0.243137" transform="translate(0,0)"></path>
<path d="M 1240.12 1528.33 L 1243.56 1527.2 C 1255 1523.52 1254.36 1517.42 1268.8 1516.37 C 1262.92 1524.46 1242.19 1528.8 1241.09 1536.33 C 1237.69 1538 1234.66 1539 1231.29 1540.51 L 1229.64 1538.78 C 1242.05 1531.89 1235.09 1536.47 1240.12 1528.33 z" fill="rgb(214,152,92)" fill-opacity="0.968627" transform="translate(0,0)"></path>
<path d="M 1383.92 1402.11 L 1385.49 1402.52 C 1391.04 1403.92 1387.94 1400.93 1393.41 1406.42 C 1391.87 1408.49 1386.06 1415.96 1384.63 1417.08 C 1383.96 1416.03 1384.21 1416.28 1383.39 1415.68 C 1380.92 1417.79 1379.81 1413.6 1376.06 1411.77 L 1383.92 1402.11 z" fill="rgb(254,253,252)" fill-opacity="0.0392157" transform="translate(0,0)"></path>
<path d="M 762.422 543.141 C 763.849 541.975 765.053 541.198 766.666 540.312 L 771.108 540.496 C 776.126 540.717 773.645 542.911 775.221 546.809 C 773.905 548.365 770.129 550.594 768.204 551.939 C 762.109 549.459 762.287 549.495 762.422 543.141 z" fill="rgb(254,253,252)" fill-opacity="0.117647" transform="translate(0,0)"></path>
<path d="M 806.57 517.746 C 807.672 522.371 806.534 523.32 803.612 526.884 C 802.375 520.151 800.521 521.454 806.57 517.746 z" fill="rgb(254,253,252)" fill-opacity="0.0431373" transform="translate(0,0)"></path>
<path d="M 813.593 510.547 C 815.667 509.423 817.902 508.511 820.176 507.887 L 820.884 508.492 L 821.242 507.986 C 821.294 508.058 821.346 508.131 821.398 508.204 C 821.283 509.489 815.349 511.59 814.154 512.139 L 813.593 510.547 z" fill="rgb(214,152,92)" fill-opacity="0.866667" transform="translate(0,0)"></path>
<path d="M 1224.64 1541.11 C 1226.32 1540.36 1227.99 1539.59 1229.64 1538.78 L 1231.29 1540.51 C 1229.09 1541.04 1227.1 1541.67 1224.91 1542.22 L 1224.64 1541.11 z" fill="rgb(221,183,137)" fill-opacity="0.87451" transform="translate(0,0)"></path>
<path d="M 1224.91 1542.22 C 1224.37 1542.48 1223.09 1543.41 1222.38 1542.8 C 1222.32 1541.69 1223.84 1541.42 1224.64 1541.11 L 1224.91 1542.22 z" fill="rgb(233,204,182)" fill-opacity="0.462745" transform="translate(0,0)"></path>
<metadata><recraft-signature>{"signed_by": "recraft", "signature_b64": "Tg/b5jO2ZY2/tv5Tk7V3zPN1Zm/q9hVLMuPcvkGxMVAlNcncPwlk6/SYzgnZvMZWP9aXwxIfmQl8rryggZB3Bg==", "signing_algo": "Ed25519", "generation_timestamp": 1781889329, "identifier": "e8a5111e-d129-4302-a692-e8c4489cd94b"}</recraft-signature></metadata></svg>